# xmcd
#
# Track frame offsets:
#	150
#	20471
#	43527
#	60945
#	74676
#	88865
#	111414
#	129574
#	148030
#	165379
#	185491
#	204321
#	218645
#	238441
#
# Disc length: 3422 seconds
#
# Revision: 0
# Processed by: cddbd v1.5.2PL0 Copyright (c) Steve Scherf et al.
# Submitted via: audiograbber 1.83.01
#
DISCID=ce0d5c0e
DTITLE=Billy Ray Cyrus - Thin Line
DYEAR=2016
DGENRE=Country
TTITLE0=Thin Line (feat. Shelby Lynne)
TTITLE1=Loving Her Was Easier (Than Anything I'll Ever Do Again)
TTITLE2=They're Playin Our Song
TTITLE3=My Heroes Have Always Been Cowboys
TTITLE4=Stop Pickin on Willie
TTITLE5=Sunday Morning Coming Down (feat. Shelby Lynne)
TTITLE6=Tulsa Time (feat. Joe Perry)
TTITLE7=Hillbilly On
TTITLE8=Killing the Blues (feat. Shooter Jennings)
TTITLE9=I've Always Been Crazy (feat. Shooter Jennings and Lee Roy Parnell)
TTITLE10=Hey Elvis (feat. Bryan Adams and Glenn Hughes)
TTITLE11=Help Me Make It Through the Night (feat. Kenley Shea Holm)
TTITLE12=Hope (Let It Find You)
TTITLE13=Going Where the Lonely Go (feat. Braison Cyrus)
EXTD=
EXTT0=
EXTT1=
EXTT2=
EXTT3=
EXTT4=
EXTT5=
EXTT6=
EXTT7=
EXTT8=
EXTT9=
EXTT10=
EXTT11=
EXTT12=
EXTT13=
PLAYORDER=
